<!DOCTYPE svg PUBLIC "-//W3C//DTD SVG 1.1//EN" "http://www.w3.org/Graphics/SVG/1.1/DTD/svg11.dtd">
<!-- Uploaded to: SVG Repo, www.svgrepo.com, Transformed by: SVG Repo Mixer Tools -->
<svg fill="#ff8040" version="1.1" id="Layer_1" xmlns="http://www.w3.org/2000/svg" xmlns:xlink="http://www.w3.org/1999/xlink" viewBox="0 0 512 512" xml:space="preserve" width="800px" height="800px" stroke="#ff8040">
<g id="SVGRepo_bgCarrier" stroke-width="0"/>
<g id="SVGRepo_tracerCarrier" stroke-linecap="round" stroke-linejoin="round"/>
<g id="SVGRepo_iconCarrier"> <g> <g> <path d="M458.928,273.615c-5.576-9.522-15.494-15.205-26.528-15.205h-27.828l-19.873-55.279H127.302L107.43,258.41H79.6 c-11.035,0-20.952,5.684-26.528,15.206s-5.683,20.952-0.286,30.575l7.46,13.301v97.739v33.391v55.029h95.491v-55.029h200.526 v55.029h95.491v-55.029v-33.391v-97.739l7.46-13.301C464.612,294.568,464.504,283.137,458.928,273.615z M150.782,236.522h210.438 v0l21.54,59.914H129.242L150.782,236.522z M84.12,291.801h11.304l-1.666,4.635h-7.039L84.12,291.801z M93.636,470.261v-21.638 h28.709v21.638H93.636z M356.263,415.232H155.737H93.636v-85.404h23.601h277.525h23.601v85.404H356.263z M389.654,470.261v-21.638 h28.709v21.638H389.654z M425.281,296.436h-7.039l-1.666-4.635h11.304L425.281,296.436z"/> </g> </g> <g> <g> <rect x="120.097" y="352.211" width="57.472" height="33.391"/> </g> </g> <g> <g> <rect x="334.425" y="352.211" width="57.472" height="33.391"/> </g> </g> <g> <g> <path d="M0,8.348v495.304h33.391V41.739h83.971l33.989,70.48h209.297l33.989-70.48h83.971v461.913H512V8.348H0z M339.68,78.828 H172.32l-17.885-37.089h203.13L339.68,78.828z"/> </g> </g> <g> <g> <rect x="239.304" y="127.878" width="33.391" height="57.01"/> </g> </g> <g> <g> <rect x="166.266" y="136.347" transform="matrix(0.3481 -0.9375 0.9375 0.3481 -16.5029 282.3518)" width="57.007" height="33.389"/> </g> </g> <g> <g> <rect x="300.503" y="124.544" transform="matrix(0.9375 -0.3481 0.3481 0.9375 -33.4382 119.9953)" width="33.39" height="57.007"/> </g> </g> </g>
</svg>